<?xml version="1.0" standalone="no"?>
<!DOCTYPE svg PUBLIC "-//W3C//DTD SVG 20010904//EN"
 "http://www.w3.org/TR/2001/REC-SVG-20010904/DTD/svg10.dtd">
<svg version="1.0" xmlns="http://www.w3.org/2000/svg"
 width="400.000000pt" height="400.000000pt" viewBox="0 0 400.000000 400.000000"
 preserveAspectRatio="xMidYMid meet">

<g transform="translate(0.000000,400.000000) scale(0.100000,-0.100000)"
fill="#000000" stroke="none">
<path d="M950 2995 l0 -35 1050 0 1050 0 0 35 0 35 -1050 0 -1050 0 0 -35z"/>
<path d="M940 2554 c0 -3 57 -114 127 -246 l126 -241 -46 -91 c-25 -50 -87
-169 -137 -263 l-91 -173 144 0 144 0 58 143 c96 235 86 215 96 192 109 -249
142 -321 148 -328 4 -4 73 -6 153 -5 l146 3 -133 245 c-74 135 -134 251 -135
258 0 6 55 121 122 255 68 133 124 245 126 250 2 4 -61 7 -140 7 l-144 0 -39
-107 c-21 -60 -48 -134 -59 -165 -12 -32 -24 -58 -27 -58 -3 0 -36 74 -74 165
l-69 165 -148 0 c-81 0 -148 -3 -148 -6z"/>
<path d="M1860 2050 l0 -510 135 0 135 0 0 510 0 510 -135 0 -135 0 0 -510z"/>
<path d="M2290 2050 l0 -510 135 0 135 0 0 510 0 510 -135 0 -135 0 0 -510z"/>
<path d="M2710 2050 l0 -510 135 0 135 0 0 510 0 510 -135 0 -135 0 0 -510z"/>
<path d="M1170 1156 l0 -76 45 0 c33 0 45 4 45 15 0 9 -9 15 -25 15 -22 0 -24
4 -27 57 -2 46 -7 59 -20 61 -16 3 -18 -6 -18 -72z"/>
<path d="M1460 1164 c-25 -81 -25 -84 0 -84 11 0 20 7 20 15 0 9 9 15 25 15
16 0 25 -6 25 -15 0 -8 9 -15 20 -15 25 0 25 -2 0 81 -18 61 -24 69 -45 69
-21 0 -27 -8 -45 -66z m46 -22 c-11 -10 -15 4 -8 28 l7 25 3 -23 c2 -13 1 -26
-2 -30z"/>
<path d="M1840 1225 c0 -3 9 -23 20 -45 11 -22 20 -53 20 -70 0 -23 4 -30 20
-30 14 0 20 7 20 24 0 13 9 45 20 71 24 57 24 55 1 55 -12 0 -21 -9 -25 -25
-4 -14 -10 -25 -15 -25 -5 0 -12 11 -15 25 -4 16 -13 25 -26 25 -11 0 -20 -2
-20 -5z"/>
<path d="M2140 1155 l0 -75 50 0 c37 0 50 4 50 14 0 8 -12 16 -27 18 -35 4
-43 28 -9 28 16 0 26 6 26 15 0 9 -10 15 -26 15 -34 0 -26 24 9 28 15 2 27 10
27 18 0 10 -13 14 -50 14 l-50 0 0 -75z"/>
<path d="M2427 1223 c-13 -12 -7 -23 13 -23 18 0 20 -7 20 -60 0 -53 2 -60 20
-60 18 0 20 7 20 56 0 47 3 57 20 61 11 3 20 12 20 19 0 10 -15 14 -53 14 -30
0 -57 -3 -60 -7z"/>
<path d="M2735 1169 c-9 -35 -19 -69 -22 -76 -3 -8 3 -13 15 -13 11 0 22 7 26
15 3 8 14 15 25 15 10 0 21 -7 25 -15 8 -21 36 -19 35 3 0 9 -8 42 -17 72 -15
46 -22 55 -43 58 -24 3 -27 -2 -44 -59z m55 -15 c0 -8 -4 -14 -10 -14 -5 0
-10 9 -10 21 0 11 5 17 10 14 6 -3 10 -13 10 -21z"/>
<path d="M950 875 l0 -35 1050 0 1050 0 0 35 0 35 -1050 0 -1050 0 0 -35z"/>
</g>
</svg>
